<?xml version="1.0" encoding="UTF-8"?>
<svg xmlns="http://www.w3.org/2000/svg" xmlns:xlink="http://www.w3.org/1999/xlink" width="32px" height="32px" viewBox="0 0 32 32" version="1.1">
<g id="surface1">
<path style=" stroke:none;fill-rule:nonzero;fill:rgb(49.019608%,36.862746%,72.549021%);fill-opacity:1;" d="M 0.03125 12.46875 C 0.03125 8.3125 0.03125 4.171875 0.03125 0.03125 C 10.699219 0.03125 21.363281 0.03125 32.03125 0.03125 C 32.03125 10.699219 32.03125 21.363281 32.03125 32.03125 C 21.363281 32.03125 10.699219 32.03125 0.03125 32.03125 C 0.03125 25.515625 0.03125 19 0.03125 12.46875 M 7.515625 31.90625 C 15.644531 31.90625 23.769531 31.90625 31.894531 31.90625 C 31.894531 21.308594 31.894531 10.738281 31.894531 0.167969 C 21.3125 0.167969 10.742188 0.167969 0.167969 0.167969 C 0.167969 10.75 0.167969 21.320312 0.167969 31.90625 C 2.613281 31.90625 5.046875 31.90625 7.515625 31.90625 Z M 7.515625 31.90625 "/>
<path style=" stroke:none;fill-rule:nonzero;fill:rgb(0%,0%,0%);fill-opacity:1;" d="M 7.5 31.90625 C 5.046875 31.90625 2.613281 31.90625 0.167969 31.90625 C 0.167969 21.320312 0.167969 10.75 0.167969 0.167969 C 10.742188 0.167969 21.3125 0.167969 31.894531 0.167969 C 31.894531 10.738281 31.894531 21.308594 31.894531 31.90625 C 23.769531 31.90625 15.644531 31.90625 7.5 31.90625 M 24.527344 10.027344 C 24.527344 10.027344 24.527344 10.027344 24.539062 10.019531 C 24.546875 10.011719 24.550781 10.003906 24.558594 10 C 24.558594 10 24.558594 9.996094 24.578125 9.992188 C 24.652344 9.953125 24.664062 9.90625 24.578125 9.878906 C 24.5 9.855469 24.414062 9.847656 24.332031 9.847656 C 23.648438 9.84375 22.96875 9.84375 22.289062 9.847656 C 20.171875 9.855469 18.050781 9.867188 15.933594 9.875 C 15.453125 9.875 14.96875 9.847656 14.484375 9.847656 C 12.980469 9.84375 11.476562 9.847656 9.972656 9.847656 C 9.894531 9.847656 9.816406 9.855469 9.738281 9.855469 C 9.089844 9.855469 8.4375 9.855469 7.789062 9.855469 C 7.710938 9.855469 7.628906 9.835938 7.554688 9.855469 C 7.496094 9.871094 7.445312 9.925781 7.390625 9.964844 C 7.441406 10.003906 7.496094 10.046875 7.566406 10.089844 C 7.585938 10.109375 7.609375 10.125 7.632812 10.167969 C 7.664062 10.214844 7.691406 10.265625 7.730469 10.300781 C 7.84375 10.398438 7.957031 10.507812 8.085938 10.578125 C 8.222656 10.652344 8.375 10.734375 8.523438 10.742188 C 8.957031 10.761719 9.390625 10.75 9.820312 10.75 C 9.878906 10.75 9.9375 10.75 9.992188 10.757812 C 10.101562 10.773438 10.160156 10.832031 10.15625 10.945312 C 10.152344 11.25 10.15625 11.550781 10.15625 11.851562 C 10.15625 11.996094 10.082031 12.0625 9.941406 12.0625 C 9.785156 12.0625 9.628906 12.050781 9.472656 12.066406 C 9.410156 12.074219 9.3125 12.125 9.296875 12.175781 C 9.265625 12.296875 9.199219 12.316406 9.09375 12.3125 C 8.578125 12.308594 8.0625 12.304688 7.546875 12.304688 C 7.511719 12.304688 7.476562 12.351562 7.4375 12.375 C 7.4375 12.375 7.441406 12.378906 7.421875 12.386719 C 7.398438 12.429688 7.363281 12.472656 7.363281 12.515625 C 7.359375 12.730469 7.371094 12.941406 7.375 13.15625 C 7.378906 13.421875 7.394531 13.417969 7.65625 13.414062 C 8.402344 13.402344 9.152344 13.40625 9.902344 13.414062 C 10.132812 13.414062 10.15625 13.457031 10.15625 13.683594 C 10.15625 16.535156 10.15625 19.386719 10.15625 22.238281 C 10.15625 22.269531 10.15625 22.300781 10.15625 22.332031 C 10.164062 22.449219 10.117188 22.503906 9.996094 22.503906 C 9.933594 22.503906 9.871094 22.539062 9.8125 22.5625 C 9.8125 22.5625 9.808594 22.5625 9.792969 22.578125 C 9.785156 22.878906 9.777344 23.179688 9.773438 23.484375 C 9.773438 23.496094 9.800781 23.511719 9.839844 23.53125 C 9.894531 23.535156 9.945312 23.539062 10.015625 23.558594 C 10.042969 23.570312 10.070312 23.589844 10.101562 23.589844 C 10.738281 23.589844 11.378906 23.589844 12.015625 23.589844 C 12.136719 23.589844 12.191406 23.523438 12.1875 23.398438 C 12.183594 23.171875 12.191406 22.941406 12.183594 22.714844 C 12.183594 22.664062 12.148438 22.613281 12.109375 22.542969 C 11.972656 22.542969 11.832031 22.542969 11.691406 22.542969 C 11.6875 22.472656 11.683594 22.429688 11.683594 22.390625 C 11.683594 19.4375 11.6875 16.484375 11.679688 13.53125 C 11.679688 13.382812 11.746094 13.375 11.859375 13.375 C 14.75 13.375 17.640625 13.375 20.53125 13.375 C 20.585938 13.375 20.644531 13.382812 20.707031 13.382812 C 20.707031 16.441406 20.707031 19.484375 20.707031 22.542969 C 20.5625 22.542969 20.425781 22.542969 20.289062 22.542969 C 20.289062 22.882812 20.289062 23.203125 20.289062 23.527344 C 20.386719 23.535156 20.472656 23.539062 20.578125 23.558594 C 20.601562 23.566406 20.625 23.585938 20.648438 23.585938 C 21.261719 23.585938 21.875 23.582031 22.492188 23.582031 C 22.59375 23.582031 22.625 23.527344 22.625 23.433594 C 22.621094 23.183594 22.621094 22.933594 22.625 22.683594 C 22.625 22.5625 22.582031 22.496094 22.453125 22.503906 C 22.140625 22.519531 22.1875 22.449219 22.1875 22.21875 C 22.183594 19.402344 22.183594 16.585938 22.183594 13.765625 C 22.183594 13.703125 22.171875 13.636719 22.195312 13.582031 C 22.214844 13.527344 22.269531 13.460938 22.320312 13.453125 C 22.484375 13.421875 22.648438 13.410156 22.8125 13.410156 C 23.296875 13.402344 23.78125 13.40625 24.265625 13.410156 C 24.359375 13.410156 24.453125 13.425781 24.542969 13.445312 C 24.769531 13.503906 24.90625 13.472656 24.917969 13.320312 C 24.941406 13.015625 24.9375 12.707031 24.9375 12.402344 C 24.9375 12.367188 24.859375 12.304688 24.816406 12.304688 C 24.339844 12.300781 23.859375 12.304688 23.382812 12.316406 C 23.214844 12.320312 23.058594 12.328125 22.988281 12.117188 C 22.984375 12.117188 22.976562 12.113281 22.953125 12.09375 C 22.761719 12.082031 22.5625 12.054688 22.371094 12.058594 C 22.226562 12.0625 22.183594 12.007812 22.183594 11.878906 C 22.1875 11.59375 22.183594 11.308594 22.1875 11.023438 C 22.1875 10.78125 22.21875 10.75 22.46875 10.746094 C 22.875 10.746094 23.277344 10.746094 23.683594 10.75 C 23.832031 10.75 23.9375 10.695312 24.027344 10.574219 C 24.101562 10.472656 24.210938 10.394531 24.296875 10.300781 C 24.367188 10.222656 24.425781 10.132812 24.492188 10.050781 C 24.492188 10.050781 24.488281 10.050781 24.503906 10.046875 C 24.511719 10.039062 24.519531 10.035156 24.527344 10.027344 M 25.050781 9.558594 C 25.167969 9.460938 25.292969 9.367188 25.40625 9.261719 C 25.464844 9.207031 25.507812 9.132812 25.570312 9.050781 C 25.585938 9.042969 25.597656 9.035156 25.636719 9.023438 C 25.664062 9.007812 25.699219 9.003906 25.71875 8.980469 C 25.804688 8.886719 25.890625 8.789062 25.976562 8.691406 C 25.847656 8.660156 25.722656 8.597656 25.59375 8.597656 C 19.117188 8.59375 12.636719 8.59375 6.160156 8.59375 C 6.097656 8.59375 6.03125 8.585938 5.972656 8.601562 C 5.890625 8.625 5.816406 8.667969 5.738281 8.699219 C 5.785156 8.757812 5.828125 8.824219 5.886719 8.867188 C 6.03125 8.96875 6.1875 9.0625 6.339844 9.160156 C 6.339844 9.160156 6.339844 9.164062 6.347656 9.183594 C 6.417969 9.257812 6.480469 9.347656 6.5625 9.40625 C 6.773438 9.5625 6.953125 9.789062 7.253906 9.78125 C 7.40625 9.773438 7.558594 9.78125 7.707031 9.78125 C 10.378906 9.769531 13.050781 9.757812 15.722656 9.75 C 16.070312 9.75 16.417969 9.777344 16.765625 9.777344 C 19.277344 9.78125 21.785156 9.78125 24.296875 9.777344 C 24.441406 9.777344 24.589844 9.742188 24.730469 9.761719 C 24.90625 9.78125 24.980469 9.699219 25.03125 9.5625 C 25.03125 9.5625 25.027344 9.5625 25.050781 9.558594 Z M 25.050781 9.558594 "/>
<path style=" stroke:none;fill-rule:nonzero;fill:rgb(49.411765%,35.686275%,74.117649%);fill-opacity:1;" d="M 20.5625 23.542969 C 20.472656 23.539062 20.386719 23.535156 20.289062 23.527344 C 20.289062 23.203125 20.289062 22.882812 20.289062 22.542969 C 20.425781 22.542969 20.5625 22.542969 20.707031 22.542969 C 20.707031 19.484375 20.707031 16.441406 20.707031 13.382812 C 20.644531 13.382812 20.585938 13.375 20.53125 13.375 C 17.640625 13.375 14.75 13.375 11.859375 13.375 C 11.746094 13.375 11.679688 13.382812 11.679688 13.53125 C 11.6875 16.484375 11.683594 19.4375 11.683594 22.390625 C 11.683594 22.429688 11.6875 22.472656 11.691406 22.542969 C 11.832031 22.542969 11.972656 22.542969 12.117188 22.566406 C 12.125 22.902344 12.125 23.210938 12.125 23.535156 C 12.027344 23.535156 11.957031 23.535156 11.886719 23.535156 C 11.257812 23.535156 10.628906 23.539062 10 23.542969 C 9.945312 23.539062 9.894531 23.535156 9.828125 23.515625 C 9.8125 23.1875 9.8125 22.875 9.808594 22.5625 C 9.808594 22.5625 9.8125 22.5625 9.824219 22.554688 C 9.972656 22.550781 10.105469 22.550781 10.242188 22.550781 C 10.242188 19.476562 10.242188 16.4375 10.242188 13.382812 C 10.183594 13.378906 10.132812 13.375 10.082031 13.375 C 9.253906 13.375 8.425781 13.371094 7.597656 13.375 C 7.480469 13.375 7.429688 13.351562 7.433594 13.222656 C 7.441406 12.941406 7.4375 12.660156 7.441406 12.378906 C 7.441406 12.378906 7.4375 12.375 7.453125 12.375 C 8.101562 12.378906 8.734375 12.378906 9.359375 12.378906 C 9.394531 12.121094 9.394531 12.121094 9.632812 12.121094 C 9.835938 12.121094 10.035156 12.121094 10.253906 12.121094 C 10.253906 11.675781 10.25 11.253906 10.253906 10.835938 C 10.257812 10.71875 10.214844 10.6875 10.101562 10.6875 C 9.566406 10.691406 9.03125 10.691406 8.496094 10.683594 C 8.410156 10.683594 8.316406 10.644531 8.242188 10.597656 C 8.035156 10.453125 7.832031 10.296875 7.628906 10.144531 C 7.609375 10.125 7.585938 10.109375 7.550781 10.078125 C 7.507812 10.03125 7.476562 9.996094 7.417969 9.933594 C 7.507812 9.933594 7.5625 9.933594 7.613281 9.933594 C 10.542969 9.933594 13.476562 9.929688 16.40625 9.929688 C 17.8125 9.929688 19.21875 9.933594 20.625 9.933594 C 21.878906 9.933594 23.136719 9.933594 24.390625 9.9375 C 24.445312 9.9375 24.5 9.972656 24.558594 9.996094 C 24.558594 9.996094 24.558594 10 24.550781 10 C 24.535156 10.007812 24.53125 10.019531 24.527344 10.027344 C 24.527344 10.027344 24.527344 10.027344 24.519531 10.027344 C 24.503906 10.039062 24.496094 10.046875 24.488281 10.050781 C 24.488281 10.050781 24.492188 10.050781 24.480469 10.054688 C 24.277344 10.234375 24.089844 10.417969 23.890625 10.582031 C 23.820312 10.636719 23.71875 10.679688 23.628906 10.683594 C 23.183594 10.691406 22.734375 10.6875 22.285156 10.6875 C 22.203125 10.6875 22.128906 10.683594 22.132812 10.804688 C 22.132812 11.203125 22.128906 11.605469 22.136719 12.003906 C 22.136719 12.046875 22.203125 12.117188 22.238281 12.117188 C 22.480469 12.125 22.726562 12.113281 22.972656 12.113281 C 22.976562 12.113281 22.984375 12.117188 23 12.132812 C 23.019531 12.21875 23.023438 12.292969 23.027344 12.378906 C 23.097656 12.378906 23.152344 12.378906 23.210938 12.378906 C 23.707031 12.378906 24.207031 12.382812 24.707031 12.375 C 24.839844 12.371094 24.882812 12.414062 24.875 12.542969 C 24.867188 12.761719 24.867188 12.980469 24.875 13.199219 C 24.882812 13.335938 24.835938 13.375 24.699219 13.375 C 23.914062 13.367188 23.128906 13.371094 22.339844 13.371094 C 22.132812 13.371094 22.132812 13.371094 22.132812 13.574219 C 22.132812 16.492188 22.132812 19.414062 22.132812 22.335938 C 22.132812 22.394531 22.132812 22.457031 22.132812 22.546875 C 22.246094 22.546875 22.339844 22.554688 22.4375 22.546875 C 22.546875 22.539062 22.585938 22.589844 22.582031 22.695312 C 22.578125 22.902344 22.582031 23.109375 22.582031 23.320312 C 22.582031 23.53125 22.582031 23.53125 22.371094 23.53125 C 21.769531 23.535156 21.164062 23.539062 20.5625 23.542969 M 16.53125 11.515625 C 16.53125 11.800781 16.53125 12.082031 16.53125 12.359375 C 17.648438 12.359375 18.738281 12.359375 19.832031 12.359375 C 19.839844 12.273438 19.847656 12.203125 19.855469 12.113281 C 20.144531 12.113281 20.421875 12.113281 20.71875 12.113281 C 20.71875 11.695312 20.71875 11.292969 20.71875 10.894531 C 20.71875 10.691406 20.71875 10.691406 20.511719 10.691406 C 19.246094 10.691406 17.984375 10.691406 16.71875 10.691406 C 16.664062 10.691406 16.605469 10.691406 16.53125 10.691406 C 16.53125 10.96875 16.53125 11.226562 16.53125 11.515625 M 12.171875 12.117188 C 12.199219 12.117188 12.222656 12.117188 12.25 12.117188 C 12.523438 12.117188 12.523438 12.117188 12.585938 12.363281 C 13.5625 12.363281 14.539062 12.363281 15.523438 12.363281 C 15.523438 11.808594 15.523438 11.257812 15.523438 10.699219 C 15.480469 10.699219 15.445312 10.691406 15.410156 10.691406 C 14.21875 10.691406 13.023438 10.691406 11.832031 10.691406 C 11.816406 10.691406 11.796875 10.6875 11.789062 10.695312 C 11.75 10.722656 11.691406 10.757812 11.6875 10.792969 C 11.683594 11.199219 11.6875 11.605469 11.683594 12.011719 C 11.683594 12.097656 11.722656 12.121094 11.796875 12.117188 C 11.910156 12.117188 12.027344 12.117188 12.171875 12.117188 Z M 12.171875 12.117188 "/>
<path style=" stroke:none;fill-rule:nonzero;fill:rgb(49.803922%,35.686275%,74.117649%);fill-opacity:1;" d="M 25.613281 9.027344 C 25.597656 9.035156 25.585938 9.042969 25.554688 9.0625 C 25.371094 9.234375 25.199219 9.398438 25.027344 9.5625 C 25.027344 9.5625 25.03125 9.5625 25.019531 9.566406 C 24.898438 9.703125 24.753906 9.71875 24.589844 9.71875 C 21.535156 9.714844 18.476562 9.714844 15.421875 9.71875 C 12.703125 9.71875 9.984375 9.714844 7.265625 9.71875 C 7.140625 9.71875 7.039062 9.6875 6.941406 9.609375 C 6.746094 9.453125 6.542969 9.308594 6.339844 9.164062 C 6.339844 9.164062 6.339844 9.160156 6.335938 9.148438 C 6.152344 9 5.972656 8.863281 5.761719 8.695312 C 12.503906 8.695312 19.203125 8.695312 25.933594 8.695312 C 25.8125 8.824219 25.714844 8.925781 25.613281 9.027344 Z M 25.613281 9.027344 "/>
<path style=" stroke:none;fill-rule:nonzero;fill:rgb(5.490196%,2.745098%,10.980392%);fill-opacity:1;" d="M 25.625 9.023438 C 25.714844 8.925781 25.8125 8.824219 25.933594 8.695312 C 19.203125 8.695312 12.503906 8.695312 5.761719 8.695312 C 5.972656 8.863281 6.152344 9 6.332031 9.148438 C 6.1875 9.0625 6.03125 8.96875 5.886719 8.867188 C 5.828125 8.824219 5.785156 8.757812 5.738281 8.699219 C 5.816406 8.667969 5.890625 8.625 5.972656 8.601562 C 6.03125 8.585938 6.097656 8.59375 6.160156 8.59375 C 12.636719 8.59375 19.117188 8.59375 25.59375 8.597656 C 25.722656 8.597656 25.847656 8.660156 25.976562 8.691406 C 25.890625 8.789062 25.804688 8.886719 25.71875 8.980469 C 25.699219 9.003906 25.664062 9.007812 25.625 9.023438 Z M 25.625 9.023438 "/>
<path style=" stroke:none;fill-rule:nonzero;fill:rgb(6.27451%,4.313726%,13.333334%);fill-opacity:1;" d="M 24.566406 9.992188 C 24.5 9.972656 24.445312 9.9375 24.390625 9.9375 C 23.136719 9.933594 21.878906 9.933594 20.625 9.933594 C 19.21875 9.933594 17.8125 9.929688 16.40625 9.929688 C 13.476562 9.929688 10.542969 9.933594 7.613281 9.933594 C 7.5625 9.933594 7.507812 9.933594 7.417969 9.933594 C 7.476562 9.996094 7.507812 10.03125 7.542969 10.074219 C 7.496094 10.046875 7.441406 10.003906 7.390625 9.964844 C 7.445312 9.925781 7.496094 9.871094 7.554688 9.855469 C 7.628906 9.835938 7.710938 9.855469 7.789062 9.855469 C 8.4375 9.855469 9.089844 9.855469 9.738281 9.855469 C 9.816406 9.855469 9.894531 9.847656 9.972656 9.847656 C 11.476562 9.847656 12.980469 9.84375 14.484375 9.847656 C 14.96875 9.847656 15.453125 9.875 15.933594 9.875 C 18.050781 9.867188 20.171875 9.855469 22.289062 9.847656 C 22.96875 9.84375 23.648438 9.84375 24.332031 9.847656 C 24.414062 9.847656 24.5 9.855469 24.578125 9.878906 C 24.664062 9.90625 24.652344 9.953125 24.566406 9.992188 Z M 24.566406 9.992188 "/>
<path style=" stroke:none;fill-rule:nonzero;fill:rgb(5.490196%,2.745098%,10.980392%);fill-opacity:1;" d="M 6.34375 9.171875 C 6.542969 9.308594 6.746094 9.453125 6.941406 9.609375 C 7.039062 9.6875 7.140625 9.71875 7.265625 9.71875 C 9.984375 9.714844 12.703125 9.71875 15.421875 9.71875 C 18.476562 9.714844 21.535156 9.714844 24.589844 9.71875 C 24.753906 9.71875 24.898438 9.703125 25.019531 9.5625 C 24.980469 9.699219 24.90625 9.78125 24.730469 9.761719 C 24.589844 9.742188 24.441406 9.777344 24.296875 9.777344 C 21.785156 9.78125 19.277344 9.78125 16.765625 9.777344 C 16.417969 9.777344 16.070312 9.75 15.722656 9.75 C 13.050781 9.757812 10.378906 9.769531 7.707031 9.78125 C 7.558594 9.78125 7.40625 9.773438 7.253906 9.78125 C 6.953125 9.789062 6.773438 9.5625 6.5625 9.40625 C 6.480469 9.347656 6.417969 9.257812 6.34375 9.171875 Z M 6.34375 9.171875 "/>
<path style=" stroke:none;fill-rule:nonzero;fill:rgb(6.27451%,4.313726%,13.333334%);fill-opacity:1;" d="M 20.570312 23.550781 C 21.164062 23.539062 21.769531 23.535156 22.371094 23.53125 C 22.582031 23.53125 22.582031 23.53125 22.582031 23.320312 C 22.582031 23.109375 22.578125 22.902344 22.582031 22.695312 C 22.585938 22.589844 22.546875 22.539062 22.4375 22.546875 C 22.339844 22.554688 22.246094 22.546875 22.132812 22.546875 C 22.132812 22.457031 22.132812 22.394531 22.132812 22.335938 C 22.132812 19.414062 22.132812 16.492188 22.132812 13.574219 C 22.132812 13.371094 22.132812 13.371094 22.339844 13.371094 C 23.128906 13.371094 23.914062 13.367188 24.699219 13.375 C 24.835938 13.375 24.882812 13.335938 24.875 13.199219 C 24.867188 12.980469 24.867188 12.761719 24.875 12.542969 C 24.882812 12.414062 24.839844 12.371094 24.707031 12.375 C 24.207031 12.382812 23.707031 12.378906 23.210938 12.378906 C 23.152344 12.378906 23.097656 12.378906 23.027344 12.378906 C 23.023438 12.292969 23.019531 12.21875 23.011719 12.136719 C 23.058594 12.328125 23.214844 12.320312 23.382812 12.316406 C 23.859375 12.304688 24.339844 12.300781 24.816406 12.304688 C 24.859375 12.304688 24.9375 12.367188 24.9375 12.402344 C 24.9375 12.707031 24.941406 13.015625 24.917969 13.320312 C 24.90625 13.472656 24.769531 13.503906 24.542969 13.445312 C 24.453125 13.425781 24.359375 13.410156 24.265625 13.410156 C 23.78125 13.40625 23.296875 13.402344 22.8125 13.410156 C 22.648438 13.410156 22.484375 13.421875 22.320312 13.453125 C 22.269531 13.460938 22.214844 13.527344 22.195312 13.582031 C 22.171875 13.636719 22.183594 13.703125 22.183594 13.765625 C 22.183594 16.585938 22.183594 19.402344 22.1875 22.21875 C 22.1875 22.449219 22.140625 22.519531 22.453125 22.503906 C 22.582031 22.496094 22.625 22.5625 22.625 22.683594 C 22.621094 22.933594 22.621094 23.183594 22.625 23.433594 C 22.625 23.527344 22.59375 23.582031 22.492188 23.582031 C 21.875 23.582031 21.261719 23.585938 20.648438 23.585938 C 20.625 23.585938 20.601562 23.566406 20.570312 23.550781 Z M 20.570312 23.550781 "/>
<path style=" stroke:none;fill-rule:nonzero;fill:rgb(3.921569%,0.784314%,8.627451%);fill-opacity:1;" d="M 7.429688 12.382812 C 7.4375 12.660156 7.441406 12.941406 7.433594 13.222656 C 7.429688 13.351562 7.480469 13.375 7.597656 13.375 C 8.425781 13.371094 9.253906 13.375 10.082031 13.375 C 10.132812 13.375 10.183594 13.378906 10.242188 13.382812 C 10.242188 16.4375 10.242188 19.476562 10.242188 22.550781 C 10.105469 22.550781 9.972656 22.550781 9.824219 22.554688 C 9.871094 22.539062 9.933594 22.503906 9.996094 22.503906 C 10.117188 22.503906 10.164062 22.449219 10.15625 22.332031 C 10.15625 22.300781 10.15625 22.269531 10.15625 22.238281 C 10.15625 19.386719 10.15625 16.535156 10.15625 13.683594 C 10.15625 13.457031 10.132812 13.414062 9.902344 13.414062 C 9.152344 13.40625 8.402344 13.402344 7.65625 13.414062 C 7.394531 13.417969 7.378906 13.421875 7.375 13.15625 C 7.371094 12.941406 7.359375 12.730469 7.363281 12.515625 C 7.363281 12.472656 7.398438 12.429688 7.429688 12.382812 Z M 7.429688 12.382812 "/>
<path style=" stroke:none;fill-rule:nonzero;fill:rgb(3.921569%,0.784314%,8.627451%);fill-opacity:1;" d="M 7.632812 10.15625 C 7.832031 10.296875 8.035156 10.453125 8.242188 10.597656 C 8.316406 10.644531 8.410156 10.683594 8.496094 10.683594 C 9.03125 10.691406 9.566406 10.691406 10.101562 10.6875 C 10.214844 10.6875 10.257812 10.71875 10.253906 10.835938 C 10.25 11.253906 10.253906 11.675781 10.253906 12.121094 C 10.035156 12.121094 9.835938 12.121094 9.632812 12.121094 C 9.394531 12.121094 9.394531 12.121094 9.359375 12.378906 C 8.734375 12.378906 8.101562 12.378906 7.453125 12.378906 C 7.476562 12.351562 7.511719 12.304688 7.546875 12.304688 C 8.0625 12.304688 8.578125 12.308594 9.09375 12.3125 C 9.199219 12.316406 9.265625 12.296875 9.296875 12.175781 C 9.3125 12.125 9.410156 12.074219 9.472656 12.066406 C 9.628906 12.050781 9.785156 12.0625 9.941406 12.0625 C 10.082031 12.0625 10.15625 11.996094 10.15625 11.851562 C 10.15625 11.550781 10.152344 11.25 10.15625 10.945312 C 10.160156 10.832031 10.101562 10.773438 9.992188 10.757812 C 9.9375 10.75 9.878906 10.75 9.820312 10.75 C 9.390625 10.75 8.957031 10.761719 8.523438 10.742188 C 8.375 10.734375 8.222656 10.652344 8.085938 10.578125 C 7.957031 10.507812 7.84375 10.398438 7.730469 10.300781 C 7.691406 10.265625 7.664062 10.214844 7.632812 10.15625 Z M 7.632812 10.15625 "/>
<path style=" stroke:none;fill-rule:nonzero;fill:rgb(6.27451%,4.313726%,13.333334%);fill-opacity:1;" d="M 22.964844 12.101562 C 22.726562 12.113281 22.480469 12.125 22.238281 12.117188 C 22.203125 12.117188 22.136719 12.046875 22.136719 12.003906 C 22.128906 11.605469 22.132812 11.203125 22.132812 10.804688 C 22.128906 10.683594 22.203125 10.6875 22.285156 10.6875 C 22.734375 10.6875 23.183594 10.691406 23.628906 10.683594 C 23.71875 10.679688 23.820312 10.636719 23.890625 10.582031 C 24.089844 10.417969 24.277344 10.234375 24.476562 10.054688 C 24.425781 10.132812 24.367188 10.222656 24.296875 10.300781 C 24.210938 10.394531 24.101562 10.472656 24.027344 10.574219 C 23.9375 10.695312 23.832031 10.75 23.683594 10.75 C 23.277344 10.746094 22.875 10.746094 22.46875 10.746094 C 22.21875 10.75 22.1875 10.78125 22.1875 11.023438 C 22.183594 11.308594 22.1875 11.59375 22.183594 11.878906 C 22.183594 12.007812 22.226562 12.0625 22.371094 12.058594 C 22.5625 12.054688 22.761719 12.082031 22.964844 12.101562 Z M 22.964844 12.101562 "/>
<path style=" stroke:none;fill-rule:nonzero;fill:rgb(3.921569%,0.784314%,8.627451%);fill-opacity:1;" d="M 10.007812 23.550781 C 10.628906 23.539062 11.257812 23.535156 11.886719 23.535156 C 11.957031 23.535156 12.027344 23.535156 12.125 23.535156 C 12.125 23.210938 12.125 22.902344 12.125 22.578125 C 12.148438 22.613281 12.183594 22.664062 12.183594 22.714844 C 12.191406 22.941406 12.183594 23.171875 12.1875 23.398438 C 12.191406 23.523438 12.136719 23.589844 12.015625 23.589844 C 11.378906 23.589844 10.738281 23.589844 10.101562 23.589844 C 10.070312 23.589844 10.042969 23.570312 10.007812 23.550781 Z M 10.007812 23.550781 "/>
<path style=" stroke:none;fill-rule:nonzero;fill:rgb(3.921569%,0.784314%,8.627451%);fill-opacity:1;" d="M 9.800781 22.570312 C 9.8125 22.875 9.8125 23.1875 9.816406 23.515625 C 9.800781 23.511719 9.773438 23.496094 9.773438 23.484375 C 9.777344 23.179688 9.785156 22.878906 9.800781 22.570312 Z M 9.800781 22.570312 "/>
<path style=" stroke:none;fill-rule:nonzero;fill:rgb(5.490196%,2.745098%,10.980392%);fill-opacity:1;" d="M 25.039062 9.558594 C 25.199219 9.398438 25.371094 9.234375 25.550781 9.070312 C 25.507812 9.132812 25.464844 9.207031 25.40625 9.261719 C 25.292969 9.367188 25.167969 9.460938 25.039062 9.558594 Z M 25.039062 9.558594 "/>
<path style=" stroke:none;fill-rule:nonzero;fill:rgb(6.27451%,4.313726%,13.333334%);fill-opacity:1;" d="M 24.53125 10.023438 C 24.53125 10.019531 24.535156 10.007812 24.550781 9.996094 C 24.550781 10.003906 24.546875 10.011719 24.53125 10.023438 Z M 24.53125 10.023438 "/>
<path style=" stroke:none;fill-rule:nonzero;fill:rgb(6.27451%,4.313726%,13.333334%);fill-opacity:1;" d="M 24.496094 10.050781 C 24.496094 10.046875 24.503906 10.039062 24.519531 10.027344 C 24.519531 10.035156 24.511719 10.039062 24.496094 10.050781 Z M 24.496094 10.050781 "/>
<path style=" stroke:none;fill-rule:nonzero;fill:rgb(0.392157%,0.392157%,1.176471%);fill-opacity:1;" d="M 16.53125 11.5 C 16.53125 11.226562 16.53125 10.96875 16.53125 10.691406 C 16.605469 10.691406 16.664062 10.691406 16.71875 10.691406 C 17.984375 10.691406 19.246094 10.691406 20.511719 10.691406 C 20.71875 10.691406 20.71875 10.691406 20.71875 10.894531 C 20.71875 11.292969 20.71875 11.695312 20.71875 12.113281 C 20.421875 12.113281 20.144531 12.113281 19.855469 12.113281 C 19.847656 12.203125 19.839844 12.273438 19.832031 12.359375 C 18.738281 12.359375 17.648438 12.359375 16.53125 12.359375 C 16.53125 12.082031 16.53125 11.800781 16.53125 11.5 Z M 16.53125 11.5 "/>
<path style=" stroke:none;fill-rule:nonzero;fill:rgb(0.392157%,0.392157%,1.176471%);fill-opacity:1;" d="M 12.15625 12.117188 C 12.027344 12.117188 11.910156 12.117188 11.796875 12.117188 C 11.722656 12.121094 11.683594 12.097656 11.683594 12.011719 C 11.6875 11.605469 11.683594 11.199219 11.6875 10.792969 C 11.691406 10.757812 11.75 10.722656 11.789062 10.695312 C 11.796875 10.6875 11.816406 10.691406 11.832031 10.691406 C 13.023438 10.691406 14.21875 10.691406 15.410156 10.691406 C 15.445312 10.691406 15.480469 10.699219 15.523438 10.699219 C 15.523438 11.257812 15.523438 11.808594 15.523438 12.363281 C 14.539062 12.363281 13.5625 12.363281 12.585938 12.363281 C 12.523438 12.117188 12.523438 12.117188 12.25 12.117188 C 12.222656 12.117188 12.199219 12.117188 12.15625 12.117188 Z M 12.15625 12.117188 "/>
</g>
</svg>
